<svg width="281" height="51" viewBox="0 0 281 51" fill="none" xmlns="http://www.w3.org/2000/svg">
<path d="M3.59375 12.2109H8.35938L16.0938 29.9844V37.2109H14.8438L8.35938 21.1953V41H3.59375V12.2109ZM25.4297 12.2109H30.1953V41H25.4297V21.1953L18.9844 37.2109H17.6953V30.0625L25.4297 12.2109ZM47.5 18.8516C48.9323 18.9297 50.2344 19.2812 51.4062 19.9062C52.5781 20.5052 53.5547 21.3125 54.3359 22.3281C55.1432 23.3177 55.7682 24.4766 56.2109 25.8047C56.6536 27.1328 56.875 28.5521 56.875 30.0625C56.875 31.5729 56.6406 32.9922 56.1719 34.3203C55.7292 35.6224 55.1042 36.7682 54.2969 37.7578C53.4896 38.7214 52.5 39.5026 51.3281 40.1016C50.1562 40.7005 48.8802 41.0521 47.5 41.1562V37.4062C48.8021 37.1198 49.8568 36.2995 50.6641 34.9453C51.4974 33.5911 51.9141 31.9635 51.9141 30.0625C51.9141 29.099 51.8099 28.2005 51.6016 27.3672C51.4193 26.5078 51.1328 25.7396 50.7422 25.0625C50.3516 24.3854 49.8828 23.8255 49.3359 23.3828C48.7891 22.9401 48.1771 22.6536 47.5 22.5234V18.8516ZM36.6016 29.9844C36.6016 28.474 36.8229 27.0677 37.2656 25.7656C37.7083 24.4635 38.3333 23.3307 39.1406 22.3672C39.974 21.3776 40.9635 20.5833 42.1094 19.9844C43.2552 19.3854 44.5182 19.0208 45.8984 18.8906V22.5234C44.5964 22.8099 43.5547 23.6302 42.7734 24.9844C41.9922 26.3385 41.6016 27.9661 41.6016 29.8672C41.6016 30.8307 41.6927 31.7422 41.875 32.6016C42.0833 33.4609 42.3698 34.2292 42.7344 34.9062C43.099 35.5833 43.5417 36.1432 44.0625 36.5859C44.6094 37.0286 45.2214 37.3021 45.8984 37.4062V41.1562C44.4661 41.0521 43.1771 40.7005 42.0312 40.1016C40.8854 39.4766 39.9089 38.6693 39.1016 37.6797C38.2943 36.6901 37.6693 35.5312 37.2266 34.2031C36.8099 32.875 36.6016 31.4688 36.6016 29.9844ZM69.2969 34.3203C69.2969 35.2057 69.4141 35.8958 69.6484 36.3906C69.8828 36.8854 70.2083 37.263 70.625 37.5234C71.0677 37.7839 71.5495 37.9531 72.0703 38.0312C72.6172 38.0833 73.1901 38.1094 73.7891 38.1094V41C73.4505 41.0521 73.112 41.0911 72.7734 41.1172C72.487 41.1432 72.1354 41.1562 71.7188 41.1562C71.3281 41.1823 70.9375 41.1953 70.5469 41.1953C70.1562 41.1953 69.7526 41.1823 69.3359 41.1562C68.9453 41.1302 68.6068 41.0911 68.3203 41.0391C67.4349 40.8828 66.7448 40.5052 66.25 39.9062C65.7552 39.2812 65.3776 38.6042 65.1172 37.875C64.8828 37.1198 64.7266 36.3906 64.6484 35.6875C64.5964 34.9844 64.5703 34.4375 64.5703 34.0469V22.1719H61.6797V18.9688H64.5703V12.7188H69.2969V18.9688H72.8125V22.1719H69.2969V34.3203ZM84.0625 41H79.2969V18.9688H84.0625V41ZM84.4922 11.9375C84.4922 12.7188 84.2188 13.3828 83.6719 13.9297C83.125 14.4505 82.4609 14.7109 81.6797 14.7109C80.8984 14.7109 80.2344 14.4375 79.6875 13.8906C79.1667 13.3438 78.9062 12.6927 78.9062 11.9375C78.9062 11.1562 79.1797 10.4922 79.7266 9.94531C80.2734 9.39844 80.9245 9.125 81.6797 9.125C82.4609 9.125 83.125 9.39844 83.6719 9.94531C84.2188 10.4922 84.4922 11.1562 84.4922 11.9375ZM101.055 18.8516C102.487 18.9297 103.789 19.2812 104.961 19.9062C106.133 20.5052 107.109 21.3125 107.891 22.3281C108.698 23.3177 109.323 24.4766 109.766 25.8047C110.208 27.1328 110.43 28.5521 110.43 30.0625C110.43 31.5729 110.195 32.9922 109.727 34.3203C109.284 35.6224 108.659 36.7682 107.852 37.7578C107.044 38.7214 106.055 39.5026 104.883 40.1016C103.711 40.7005 102.435 41.0521 101.055 41.1562V37.4062C102.357 37.1198 103.411 36.2995 104.219 34.9453C105.052 33.5911 105.469 31.9635 105.469 30.0625C105.469 29.099 105.365 28.2005 105.156 27.3672C104.974 26.5078 104.688 25.7396 104.297 25.0625C103.906 24.3854 103.438 23.8255 102.891 23.3828C102.344 22.9401 101.732 22.6536 101.055 22.5234V18.8516ZM90.1562 29.9844C90.1562 28.474 90.3776 27.0677 90.8203 25.7656C91.263 24.4635 91.888 23.3307 92.6953 22.3672C93.5286 21.3776 94.5182 20.5833 95.6641 19.9844C96.8099 19.3854 98.0729 19.0208 99.4531 18.8906V22.5234C98.151 22.8099 97.1094 23.6302 96.3281 24.9844C95.5469 26.3385 95.1562 27.9661 95.1562 29.8672C95.1562 30.8307 95.2474 31.7422 95.4297 32.6016C95.638 33.4609 95.9245 34.2292 96.2891 34.9062C96.6536 35.5833 97.0964 36.1432 97.6172 36.5859C98.1641 37.0286 98.776 37.3021 99.4531 37.4062V41.1562C98.0208 41.0521 96.7318 40.7005 95.5859 40.1016C94.4401 39.4766 93.4635 38.6693 92.6562 37.6797C91.849 36.6901 91.224 35.5312 90.7812 34.2031C90.3646 32.875 90.1562 31.4688 90.1562 29.9844ZM120.781 18.9688L121.289 21.1953V41H116.562V18.9688H120.781ZM132.969 21.3906C133.411 21.8333 133.75 22.3542 133.984 22.9531C134.245 23.526 134.427 24.138 134.531 24.7891C134.661 25.4141 134.74 26.0521 134.766 26.7031C134.792 27.3542 134.805 27.9922 134.805 28.6172V40.2188V41H130.039V29.0078C130.039 28.1224 130 27.276 129.922 26.4688C129.844 25.6615 129.661 24.9453 129.375 24.3203C129.089 23.6953 128.698 23.2135 128.203 22.875C127.708 22.5104 127.018 22.3281 126.133 22.3281C125.768 22.3281 125.273 22.3932 124.648 22.5234C124.049 22.6276 123.464 22.8099 122.891 23.0703V20.0625C123.594 19.6979 124.349 19.3854 125.156 19.125C125.99 18.8646 126.797 18.7344 127.578 18.7344C128.75 18.7344 129.74 18.9818 130.547 19.4766C131.354 19.9453 132.161 20.5833 132.969 21.3906Z" fill="white"/>
<path d="M157.844 17.7578C157.219 17.0026 156.503 16.4557 155.695 16.1172C154.888 15.7786 154.055 15.6094 153.195 15.6094H153.039V11.7422H153.078C154.641 11.7422 156.099 12.0026 157.453 12.5234C158.807 13.0443 160.018 13.8255 161.086 14.8672L157.844 17.7578ZM141.086 26.4688C141.086 24.2292 141.346 22.25 141.867 20.5312C142.388 18.7865 143.104 17.3151 144.016 16.1172C144.927 14.8932 146.021 13.9297 147.297 13.2266C148.573 12.5234 149.953 12.0807 151.438 11.8984V15.8047C150.656 16.013 149.927 16.3646 149.25 16.8594C148.599 17.3542 148.013 18.0443 147.492 18.9297C146.997 19.7891 146.607 20.8438 146.32 22.0938C146.034 23.3177 145.878 24.776 145.852 26.4688C145.878 28.1615 146.034 29.6458 146.32 30.9219C146.607 32.1979 146.997 33.3047 147.492 34.2422C148.013 35.1536 148.599 35.8828 149.25 36.4297C149.927 36.9766 150.656 37.3542 151.438 37.5625V41.1172C149.953 40.9349 148.573 40.4922 147.297 39.7891C146.021 39.0599 144.927 38.0833 144.016 36.8594C143.104 35.6354 142.388 34.1641 141.867 32.4453C141.346 30.7005 141.086 28.7083 141.086 26.4688ZM162.57 26.1562V37.2891C161.971 38.0443 161.294 38.6693 160.539 39.1641C159.81 39.6328 159.029 40.0234 158.195 40.3359C157.388 40.6484 156.542 40.8698 155.656 41C154.797 41.1302 153.938 41.1953 153.078 41.1953H153.039V37.7578C153.352 37.7578 153.729 37.7448 154.172 37.7188C154.641 37.6667 155.109 37.6016 155.578 37.5234C156.073 37.4193 156.529 37.2891 156.945 37.1328C157.388 36.9766 157.714 36.7552 157.922 36.4688V29.3594H153.039V26.1562H162.57ZM173.703 26C173.703 28.0052 173.833 29.7109 174.094 31.1172C174.354 32.4974 174.732 33.6432 175.227 34.5547C175.721 35.4401 176.307 36.1042 176.984 36.5469C177.688 36.9896 178.469 37.25 179.328 37.3281V41.1953C177.74 41.0911 176.294 40.7135 174.992 40.0625C173.716 39.3854 172.635 38.4349 171.75 37.2109C170.865 35.9609 170.174 34.4375 169.68 32.6406C169.185 30.8438 168.938 28.7865 168.938 26.4688V12.2109H173.703V26ZM191.32 12.2109V26.4688C191.32 28.7865 191.073 30.8438 190.578 32.6406C190.083 34.4375 189.38 35.9609 188.469 37.2109C187.583 38.4349 186.503 39.3854 185.227 40.0625C183.951 40.7135 182.518 41.0911 180.93 41.1953V37.3281C181.789 37.224 182.557 36.9635 183.234 36.5469C183.938 36.1042 184.536 35.4401 185.031 34.5547C185.526 33.6693 185.904 32.5365 186.164 31.1562C186.451 29.75 186.594 28.0312 186.594 26V12.2109H191.32ZM221.711 41H216.867L209.406 19.4375L201.867 41H196.984L207.062 12.25H211.711L221.711 41ZM211.984 31.8594L213.117 35.0234H205.656L206.75 31.8594H211.984ZM227.688 12.2109H232.375V41H227.688V12.2109ZM247.219 41H242.258L236.828 30.5703C236.75 30.5703 236.659 30.5833 236.555 30.6094C236.477 30.6094 236.346 30.6094 236.164 30.6094C235.982 30.6094 235.708 30.6094 235.344 30.6094C235.005 30.6094 234.549 30.6094 233.977 30.6094V27.1719H236.633C237.206 27.1719 237.779 27.0807 238.352 26.8984C238.924 26.6901 239.445 26.3646 239.914 25.9219C240.383 25.4792 240.76 24.8672 241.047 24.0859C241.333 23.2786 241.477 22.2891 241.477 21.1172C241.477 20.6484 241.411 20.1146 241.281 19.5156C241.151 18.8906 240.878 18.3047 240.461 17.7578C240.07 17.1849 239.51 16.7161 238.781 16.3516C238.052 15.9609 237.089 15.7656 235.891 15.7656H233.977V12.2109H235.969C237.193 12.2109 238.404 12.4062 239.602 12.7969C240.799 13.1875 241.867 13.7734 242.805 14.5547C243.768 15.3359 244.536 16.2865 245.109 17.4062C245.708 18.5 246.008 19.737 246.008 21.1172C246.008 23.2005 245.526 24.9714 244.562 26.4297C243.599 27.888 242.297 28.9688 240.656 29.6719L247.219 41ZM253.703 12.2109H258.391V41H253.703V12.2109ZM262.375 12.2109C264.797 12.2109 266.919 12.6016 268.742 13.3828C270.591 14.138 272.115 15.1536 273.312 16.4297C274.536 17.7057 275.448 19.1641 276.047 20.8047C276.646 22.4193 276.945 24.0859 276.945 25.8047C276.945 28.1745 276.685 30.2057 276.164 31.8984C275.669 33.5651 275.031 34.9714 274.25 36.1172C273.469 37.237 272.583 38.1224 271.594 38.7734C270.63 39.4245 269.693 39.9193 268.781 40.2578C267.87 40.5703 267.036 40.7786 266.281 40.8828C265.526 40.9609 264.966 41 264.602 41H259.992V37.5625H263.039C266.216 37.5625 268.508 36.5469 269.914 34.5156C271.32 32.4844 272.023 29.5417 272.023 25.6875C272.023 24.4896 271.88 23.3047 271.594 22.1328C271.307 20.9609 270.747 19.9062 269.914 18.9688C269.107 18.0052 268 17.237 266.594 16.6641C265.188 16.0651 263.365 15.7656 261.125 15.7656H259.992V12.2109H262.375Z" fill="white"/>
</svg>
